# xmcd CD database file
#
# Track frame offsets:
#	150
#	24137
#	48645
#	69117
#	90292
#	115917
#	140765
#	160040
#	183487
#	202877
#	213940
#	234632
#	252450
#	270200
#
# Disc length: 3847 seconds
#
# Revision: 0
# Processed by: cddbd v1.4PL0 Copyright (c) Steve Scherf et al.
# Submitted via: CDex 1.51
#
DISCID=b40f050e
DTITLE=Art Farmer - Out Of The Past
DYEAR=1961
DGENRE=Jazz
TTITLE0=Out Of The Past
TTITLE1=Who Cares ?
TTITLE2=Goodbye, Old Girl
TTITLE3=So Beats My Heart For You
TTITLE4=Younger than Springtime
TTITLE5=I'm A Fool To Want You
TTITLE6=That Old Devil Called Love
TTITLE7=Ponsu
TTITLE8=Lullaby Of The Leaves
TTITLE9=The Day After
TTITLE10=Tonk
TTITLE11=Blue Room
TTITLE12=Kayin'
TTITLE13=Nobody's Heart
EXTD=YEAR: 1961
EXTT0=
EXTT1=
EXTT2=
EXTT3=
EXTT4=
EXTT5=
EXTT6=
EXTT7=
EXTT8=
EXTT9=
EXTT10=
EXTT11=
EXTT12=
EXTT13=
PLAYORDER=
